<mxfile host="app.diagrams.net" modified="2024-03-13T08:32:46.588Z" agent="Mozilla/5.0 (Windows NT 10.0; Win64; x64) AppleWebKit/537.36 (KHTML, like Gecko) Chrome/122.0.0.0 Safari/537.36 Edg/122.0.0.0" etag="dvIAHw5FrGC6TkMNOFUo" version="24.0.5" type="github">
  <diagram name="Страница — 1" id="OFfpqwyXjJZS2tolgbmT">
    <mxGraphModel dx="1666" dy="793" grid="1" gridSize="10" guides="1" tooltips="1" connect="1" arrows="1" fold="1" page="1" pageScale="1" pageWidth="827" pageHeight="1169" math="0" shadow="0">
      <root>
        <mxCell id="0" />
        <mxCell id="1" parent="0" />
        <mxCell id="Ht7qIuYhKJLz1fgCi5n9-14" value="&lt;p style=&quot;margin:0px;margin-top:4px;text-align:center;&quot;&gt;&lt;b&gt;Router&lt;/b&gt;&lt;/p&gt;&lt;hr size=&quot;1&quot; style=&quot;border-style:solid;&quot;&gt;&lt;div style=&quot;text-align: center; height: 2px; line-height: 100%;&quot;&gt;route (url: string): string&lt;/div&gt;" style="verticalAlign=top;align=left;overflow=fill;html=1;whiteSpace=wrap;" parent="1" vertex="1">
          <mxGeometry x="500" y="30" width="140" height="50" as="geometry" />
        </mxCell>
        <mxCell id="Ht7qIuYhKJLz1fgCi5n9-17" value="&lt;p style=&quot;margin:0px;margin-top:4px;text-align:center;&quot;&gt;&lt;b&gt;Product&lt;/b&gt;&lt;/p&gt;&lt;hr size=&quot;1&quot; style=&quot;border-style:solid;&quot;&gt;&lt;p style=&quot;margin:0px;margin-left:4px;&quot;&gt;get (id: int): string&lt;br&gt;&lt;/p&gt;&lt;p style=&quot;margin:0px;margin-left:4px;&quot;&gt;getAll(): string&lt;/p&gt;" style="verticalAlign=top;align=left;overflow=fill;html=1;whiteSpace=wrap;" parent="1" vertex="1">
          <mxGeometry x="300" y="130" width="160" height="80" as="geometry" />
        </mxCell>
        <mxCell id="Ht7qIuYhKJLz1fgCi5n9-18" value="&lt;p style=&quot;margin:0px;margin-top:4px;text-align:center;&quot;&gt;&lt;b&gt;Product Template&lt;/b&gt;&lt;/p&gt;&lt;hr size=&quot;1&quot; style=&quot;border-style:solid;&quot;&gt;&lt;div style=&quot;height: 2px; line-height: 100%;&quot;&gt;&amp;nbsp;getTemplate (arr:array): string&lt;/div&gt;&lt;div style=&quot;height:2px;&quot;&gt;&lt;/div&gt;" style="verticalAlign=top;align=left;overflow=fill;html=1;whiteSpace=wrap;" parent="1" vertex="1">
          <mxGeometry x="500" y="180" width="170" height="50" as="geometry" />
        </mxCell>
        <mxCell id="Ht7qIuYhKJLz1fgCi5n9-20" value="&lt;p style=&quot;margin:0px;margin-top:4px;text-align:center;&quot;&gt;&lt;b&gt;Base Template&lt;/b&gt;&lt;/p&gt;&lt;hr size=&quot;1&quot; style=&quot;border-style:solid;&quot;&gt;&lt;div style=&quot;height: 2px; line-height: 100%;&quot;&gt;&amp;nbsp;get(): string&lt;/div&gt;" style="verticalAlign=top;align=left;overflow=fill;html=1;whiteSpace=wrap;fillColor=default;" parent="1" vertex="1">
          <mxGeometry x="515" y="270" width="140" height="50" as="geometry" />
        </mxCell>
        <mxCell id="Ht7qIuYhKJLz1fgCi5n9-27" value="&lt;p style=&quot;margin: 4px 0px 0px; text-align: center; line-height: 100%;&quot;&gt;&lt;b&gt;File Storage&lt;/b&gt;&lt;/p&gt;&lt;hr size=&quot;1&quot; style=&quot;border-style:solid;&quot;&gt;&lt;span style=&quot;text-align: center;&quot;&gt;&amp;nbsp;Load (nameFile: string): array&lt;/span&gt;&lt;div style=&quot;height:2px;&quot;&gt;&lt;/div&gt;&amp;nbsp;Save (&lt;span style=&quot;text-align: center;&quot;&gt;nameFile: string, arr: array)&lt;/span&gt;&lt;div style=&quot;height:2px;&quot;&gt;&lt;/div&gt;" style="verticalAlign=top;align=left;overflow=fill;html=1;whiteSpace=wrap;" parent="1" vertex="1">
          <mxGeometry x="120" y="250" width="190" height="70" as="geometry" />
        </mxCell>
        <mxCell id="Ht7qIuYhKJLz1fgCi5n9-30" value="Extends" style="endArrow=block;endSize=6;endFill=0;html=1;rounded=0;exitX=0.5;exitY=1;exitDx=0;exitDy=0;entryX=0.5;entryY=0;entryDx=0;entryDy=0;" parent="1" source="Ht7qIuYhKJLz1fgCi5n9-18" target="Ht7qIuYhKJLz1fgCi5n9-20" edge="1">
          <mxGeometry width="160" relative="1" as="geometry">
            <mxPoint x="110" y="190" as="sourcePoint" />
            <mxPoint x="270" y="190" as="targetPoint" />
          </mxGeometry>
        </mxCell>
        <mxCell id="Ht7qIuYhKJLz1fgCi5n9-31" value="" style="endArrow=diamond;html=1;endSize=6;startArrow=none;startSize=6;startFill=0;align=left;verticalAlign=bottom;rounded=0;entryX=0.25;entryY=1;entryDx=0;entryDy=0;endFill=0;strokeColor=default;exitX=0.996;exitY=0.43;exitDx=0;exitDy=0;exitPerimeter=0;" parent="1" source="Ht7qIuYhKJLz1fgCi5n9-17" target="Ht7qIuYhKJLz1fgCi5n9-14" edge="1">
          <mxGeometry x="-1" y="3" relative="1" as="geometry">
            <mxPoint x="340" y="155" as="sourcePoint" />
            <mxPoint x="494" y="60" as="targetPoint" />
          </mxGeometry>
        </mxCell>
        <mxCell id="Ht7qIuYhKJLz1fgCi5n9-37" value="products/{id}" style="edgeLabel;html=1;align=center;verticalAlign=middle;resizable=0;points=[];" parent="Ht7qIuYhKJLz1fgCi5n9-31" vertex="1" connectable="0">
          <mxGeometry x="0.1975" y="-1" relative="1" as="geometry">
            <mxPoint x="14" y="-14" as="offset" />
          </mxGeometry>
        </mxCell>
        <mxCell id="Ht7qIuYhKJLz1fgCi5n9-32" value="" style="endArrow=none;html=1;endSize=6;startArrow=diamond;startSize=6;startFill=0;align=left;verticalAlign=bottom;rounded=0;entryX=0.5;entryY=0;entryDx=0;entryDy=0;endFill=0;strokeColor=default;exitX=0.25;exitY=1;exitDx=0;exitDy=0;" parent="1" source="Ht7qIuYhKJLz1fgCi5n9-17" target="Ht7qIuYhKJLz1fgCi5n9-27" edge="1">
          <mxGeometry x="-1" y="3" relative="1" as="geometry">
            <mxPoint x="300" y="200" as="sourcePoint" />
            <mxPoint x="380" y="189.5" as="targetPoint" />
          </mxGeometry>
        </mxCell>
        <mxCell id="Ht7qIuYhKJLz1fgCi5n9-33" value="" style="endArrow=none;html=1;endSize=6;startArrow=diamond;startSize=6;startFill=0;align=left;verticalAlign=bottom;rounded=0;entryX=0;entryY=0.75;entryDx=0;entryDy=0;exitX=0.991;exitY=0.847;exitDx=0;exitDy=0;endFill=0;strokeColor=default;exitPerimeter=0;" parent="1" source="Ht7qIuYhKJLz1fgCi5n9-17" target="Ht7qIuYhKJLz1fgCi5n9-18" edge="1">
          <mxGeometry x="-1" y="3" relative="1" as="geometry">
            <mxPoint x="300" y="140" as="sourcePoint" />
            <mxPoint x="380" y="90" as="targetPoint" />
          </mxGeometry>
        </mxCell>
        <mxCell id="Ht7qIuYhKJLz1fgCi5n9-35" value="" style="endArrow=none;html=1;endSize=6;startArrow=diamond;startSize=6;startFill=0;align=left;verticalAlign=bottom;rounded=0;endFill=0;strokeColor=default;exitX=0.642;exitY=0.973;exitDx=0;exitDy=0;entryX=1.008;entryY=0.674;entryDx=0;entryDy=0;entryPerimeter=0;exitPerimeter=0;" parent="1" source="Ht7qIuYhKJLz1fgCi5n9-14" target="Ht7qIuYhKJLz1fgCi5n9-17" edge="1">
          <mxGeometry x="-1" y="3" relative="1" as="geometry">
            <mxPoint x="370" y="70" as="sourcePoint" />
            <mxPoint x="300" y="180" as="targetPoint" />
          </mxGeometry>
        </mxCell>
        <mxCell id="Ht7qIuYhKJLz1fgCi5n9-38" value="products" style="edgeLabel;html=1;align=center;verticalAlign=middle;resizable=0;points=[];" parent="Ht7qIuYhKJLz1fgCi5n9-35" vertex="1" connectable="0">
          <mxGeometry x="-0.0717" y="-1" relative="1" as="geometry">
            <mxPoint x="-10" y="13" as="offset" />
          </mxGeometry>
        </mxCell>
      </root>
    </mxGraphModel>
  </diagram>
</mxfile>
